<mxfile host="app.diagrams.net" agent="Mozilla/5.0 (Windows NT 10.0; Win64; x64) AppleWebKit/537.36 (KHTML, like Gecko) Chrome/129.0.0.0 Safari/537.36" version="24.7.14">
  <diagram name="Page-1" id="UJqiJtp9pC59oSsna3cu">
    <mxGraphModel dx="1050" dy="557" grid="1" gridSize="10" guides="1" tooltips="1" connect="1" arrows="1" fold="1" page="1" pageScale="1" pageWidth="850" pageHeight="1100" math="0" shadow="0">
      <root>
        <mxCell id="0" />
        <mxCell id="1" parent="0" />
        <mxCell id="4t6aV_8nopAgkAp87VBs-1" value="&lt;b&gt;Unit Conversion UI&lt;/b&gt;&lt;div&gt;&lt;b&gt;(React+Typescript+&lt;/b&gt;&lt;/div&gt;&lt;div&gt;&lt;b&gt;Bootstrap)&lt;/b&gt;&lt;/div&gt;" style="rounded=0;whiteSpace=wrap;html=1;" vertex="1" parent="1">
          <mxGeometry x="40" y="80" width="130" height="200" as="geometry" />
        </mxCell>
        <mxCell id="4t6aV_8nopAgkAp87VBs-2" value="&lt;b&gt;UnitConversion SQL DB&lt;/b&gt;" style="shape=cylinder3;whiteSpace=wrap;html=1;boundedLbl=1;backgroundOutline=1;size=15;" vertex="1" parent="1">
          <mxGeometry x="645" y="300" width="100" height="140" as="geometry" />
        </mxCell>
        <mxCell id="4t6aV_8nopAgkAp87VBs-3" value="&lt;b&gt;Unit Conversion Web API&lt;/b&gt;&lt;div&gt;&lt;b&gt;(.Net Core , C#)&lt;/b&gt;&lt;/div&gt;" style="whiteSpace=wrap;html=1;aspect=fixed;" vertex="1" parent="1">
          <mxGeometry x="240" y="80" width="200" height="200" as="geometry" />
        </mxCell>
        <mxCell id="4t6aV_8nopAgkAp87VBs-4" value="&lt;b&gt;Service Layer&lt;/b&gt;&lt;div&gt;&lt;b&gt;(Business Logic, DTO&#39;s)&lt;/b&gt;&lt;/div&gt;" style="rounded=0;whiteSpace=wrap;html=1;" vertex="1" parent="1">
          <mxGeometry x="560" y="80" width="270" height="60" as="geometry" />
        </mxCell>
        <mxCell id="4t6aV_8nopAgkAp87VBs-5" value="&lt;b&gt;Data Layer&lt;br&gt;(Repository, Data Models )&lt;/b&gt;" style="rounded=0;whiteSpace=wrap;html=1;" vertex="1" parent="1">
          <mxGeometry x="560" y="190" width="270" height="60" as="geometry" />
        </mxCell>
        <mxCell id="4t6aV_8nopAgkAp87VBs-6" value="" style="endArrow=classic;startArrow=classic;html=1;rounded=0;exitX=1;exitY=0.5;exitDx=0;exitDy=0;entryX=0;entryY=0.5;entryDx=0;entryDy=0;" edge="1" parent="1" source="4t6aV_8nopAgkAp87VBs-1" target="4t6aV_8nopAgkAp87VBs-3">
          <mxGeometry width="50" height="50" relative="1" as="geometry">
            <mxPoint x="400" y="320" as="sourcePoint" />
            <mxPoint x="450" y="270" as="targetPoint" />
          </mxGeometry>
        </mxCell>
        <mxCell id="4t6aV_8nopAgkAp87VBs-8" value="" style="endArrow=classic;startArrow=classic;html=1;rounded=0;" edge="1" parent="1">
          <mxGeometry width="50" height="50" relative="1" as="geometry">
            <mxPoint x="440" y="110" as="sourcePoint" />
            <mxPoint x="560" y="110" as="targetPoint" />
          </mxGeometry>
        </mxCell>
        <mxCell id="4t6aV_8nopAgkAp87VBs-9" value="" style="endArrow=classic;startArrow=classic;html=1;rounded=0;entryX=0.5;entryY=1;entryDx=0;entryDy=0;" edge="1" parent="1" source="4t6aV_8nopAgkAp87VBs-5" target="4t6aV_8nopAgkAp87VBs-4">
          <mxGeometry width="50" height="50" relative="1" as="geometry">
            <mxPoint x="400" y="320" as="sourcePoint" />
            <mxPoint x="450" y="270" as="targetPoint" />
          </mxGeometry>
        </mxCell>
        <mxCell id="4t6aV_8nopAgkAp87VBs-10" value="" style="endArrow=classic;startArrow=classic;html=1;rounded=0;entryX=0.5;entryY=1;entryDx=0;entryDy=0;exitX=0.5;exitY=0;exitDx=0;exitDy=0;exitPerimeter=0;" edge="1" parent="1" source="4t6aV_8nopAgkAp87VBs-2" target="4t6aV_8nopAgkAp87VBs-5">
          <mxGeometry width="50" height="50" relative="1" as="geometry">
            <mxPoint x="400" y="320" as="sourcePoint" />
            <mxPoint x="450" y="270" as="targetPoint" />
          </mxGeometry>
        </mxCell>
        <mxCell id="4t6aV_8nopAgkAp87VBs-12" value="&lt;b&gt;&lt;font style=&quot;font-size: 18px;&quot;&gt;Unit Conversion Application Flow Digram&lt;/font&gt;&lt;/b&gt;" style="text;html=1;align=center;verticalAlign=middle;whiteSpace=wrap;rounded=0;" vertex="1" parent="1">
          <mxGeometry x="40" y="10" width="360" height="30" as="geometry" />
        </mxCell>
      </root>
    </mxGraphModel>
  </diagram>
</mxfile>
